<svg width="17" height="16" viewBox="0 0 17 16" fill="none" xmlns="http://www.w3.org/2000/svg">
<path d="M8.20796 2.17745C8.23673 2.12518 8.27901 2.0816 8.33037 2.05125C8.38173 2.02089 8.4403 2.00488 8.49996 2.00488C8.55962 2.00488 8.61819 2.02089 8.66955 2.05125C8.72091 2.0816 8.76318 2.12518 8.79196 2.17745L10.76 5.91345C10.8069 5.99995 10.8724 6.075 10.9518 6.13319C11.0311 6.19138 11.1224 6.23128 11.219 6.25002C11.3156 6.26876 11.4152 6.26587 11.5106 6.24156C11.606 6.21726 11.6948 6.17214 11.7706 6.10945L14.622 3.66678C14.6767 3.62226 14.7441 3.59626 14.8146 3.59251C14.8851 3.58877 14.9549 3.60748 15.014 3.64594C15.0732 3.68441 15.1186 3.74065 15.1437 3.80657C15.1689 3.87249 15.1725 3.94469 15.154 4.01278L13.2646 12.4434C13.2261 12.5832 13.143 12.7066 13.028 12.7949C12.913 12.8832 12.7723 12.9316 12.6273 12.9328H4.37329C4.22818 12.9318 4.08736 12.8834 3.97222 12.7951C3.85707 12.7068 3.77389 12.5833 3.73529 12.4434L1.84662 4.01345C1.82812 3.94536 1.8317 3.87316 1.85685 3.80724C1.882 3.74132 1.92741 3.68508 1.98656 3.64661C2.0457 3.60814 2.11553 3.58944 2.18598 3.59318C2.25644 3.59692 2.32389 3.62293 2.37862 3.66745L5.22929 6.11011C5.30516 6.17281 5.39396 6.21793 5.48933 6.24223C5.5847 6.26654 5.68427 6.26942 5.78089 6.25068C5.87751 6.23195 5.96878 6.19205 6.04815 6.13386C6.12752 6.07566 6.19303 6.00062 6.23996 5.91411L8.20796 2.17745Z" fill="url(#paint0_linear_14979_3213)"/>
<defs>
<linearGradient id="paint0_linear_14979_3213" x1="1.83496" y1="12.9328" x2="16.7492" y2="9.47591" gradientUnits="userSpaceOnUse">
<stop stop-color="#EAD727"/>
<stop offset="1" stop-color="#F5CB32"/>
</linearGradient>
</defs>
</svg>
